<?xml version="1.0" encoding="UTF-8" standalone="no"?>
<svg width="30px" height="30px" viewBox="0 0 30 30" version="1.1" xmlns="http://www.w3.org/2000/svg" xmlns:xlink="http://www.w3.org/1999/xlink" xmlns:sketch="http://www.bohemiancoding.com/sketch/ns">
    <!-- Generator: Sketch 3.3.3 (12072) - http://www.bohemiancoding.com/sketch -->
    <title>Untitled</title>
    <desc>Created with Sketch.</desc>
    <defs></defs>
    <g id="Page-1" stroke="none" stroke-width="1" fill="none" fill-rule="evenodd" sketch:type="MSPage">
        <rect id="Rectangle-1" fill="#F3E13B" sketch:type="MSShapeGroup" x="0" y="0" width="30" height="30"></rect>
        <g id="pencil" sketch:type="MSLayerGroup" transform="translate(7.000000, 8.000000)" fill="#000000">
            <path d="M1.22346667,14.8725 C1.07626667,14.8725 0.964266667,14.7525 0.964266667,14.6121429 C0.964266667,14.5907143 0.971733333,14.5767857 0.971733333,14.5564286 L1.9936,9.93214286 L2.00106667,9.93214286 C2.00853333,9.88285714 2.03626667,9.84107143 2.07146667,9.80571429 L2.06293333,9.80571429 L9.1712,2.65821429 L13.1168,6.62142857 L6.00853333,13.7689286 C5.97333333,13.7967857 5.93173333,13.8182143 5.88266667,13.8321429 L1.28,14.8660714 L1.27253333,14.8585714 C1.25866667,14.8660714 1.23733333,14.8725 1.22346667,14.8725 L1.22346667,14.8725 Z M5.568,11.7878571 L4.288,11.7878571 C4.14826667,11.7878571 4.03626667,11.6678571 4.03626667,11.5275 L4.03626667,10.2417857 L2.448,10.2417857 L1.55946667,14.2757143 L5.56906667,13.3757143 L5.56906667,11.7878571 L5.568,11.7878571 Z M15.2938667,4.33071429 C15.2938667,4.40142857 15.2661333,4.46464286 15.2170667,4.51392857 L13.4816,6.25714286 L9.536,2.30035714 L11.2778667,0.550714286 C11.3194667,0.508928571 11.3824,0.48 11.4528,0.48 C11.5296,0.48 11.5925333,0.507857143 11.6352,0.550714286 L15.2170667,4.14857143 C15.2661333,4.19785714 15.2938667,4.26107143 15.2938667,4.33071429 L15.2938667,4.33071429 Z" id="Shape" sketch:type="MSShapeGroup"></path>
        </g>
    </g>
</svg>