<?xml version="1.0" encoding="UTF-8" standalone="no"?>
<svg width="30px" height="30px" viewBox="0 0 30 30" version="1.1" xmlns="http://www.w3.org/2000/svg" xmlns:xlink="http://www.w3.org/1999/xlink" xmlns:sketch="http://www.bohemiancoding.com/sketch/ns">
    <!-- Generator: Sketch 3.3.3 (12072) - http://www.bohemiancoding.com/sketch -->
    <title>Untitled</title>
    <desc>Created with Sketch.</desc>
    <defs></defs>
    <g id="Page-1" stroke="none" stroke-width="1" fill="none" fill-rule="evenodd" sketch:type="MSPage">
        <rect id="Rectangle-1" fill="#E56D3E" sketch:type="MSShapeGroup" x="0" y="0" width="30" height="30"></rect>
        <g id="x" sketch:type="MSLayerGroup" transform="translate(7.000000, 8.000000)" fill="#000000">
            <path d="M15.6808421,12.13 C15.6808421,12.2291667 15.6404211,12.3083333 15.5806316,12.3875 L13.0408421,14.9008333 C12.9608421,14.96 12.8816842,15 12.7814737,15 C12.6812632,15 12.6012632,14.96 12.5221053,14.9008333 L8.10273684,10.5275 L3.68336842,14.9008333 C3.60336842,14.96 3.52252632,15 3.42315789,15 C3.32294737,15 3.24294737,14.96 3.16294737,14.9008333 L0.623157895,12.3875 C0.563368421,12.3083333 0.522947368,12.2291667 0.522947368,12.13 C0.522947368,12.0308333 0.563368421,11.9516667 0.623157895,11.8733333 L5.04252632,7.5 L0.623157895,3.12666667 C0.563368421,3.04833333 0.522947368,2.96833333 0.522947368,2.87 C0.522947368,2.77083333 0.563368421,2.69166667 0.623157895,2.6125 L3.16294737,0.0991666667 C3.24294737,0.04 3.32210526,0 3.42315789,0 C3.52336842,0 3.60336842,0.04 3.68252632,0.0991666667 L8.10189474,4.4725 L12.5212632,0.0991666667 C12.6012632,0.04 12.6812632,0 12.7814737,0 C12.8816842,0 12.9616842,0.04 13.0416842,0.0991666667 L15.5814737,2.6125 C15.6412632,2.69166667 15.6816842,2.77083333 15.6816842,2.87 C15.6816842,2.96916667 15.6412632,3.04833333 15.5814737,3.12666667 L11.1612632,7.5 L15.5806316,11.8733333 C15.6412632,11.9525 15.6808421,12.0316667 15.6808421,12.13 L15.6808421,12.13 Z" id="Shape" sketch:type="MSShapeGroup"></path>
        </g>
    </g>
</svg>